<?xml version="1.0" encoding="UTF-8" standalone="no"?>
<!DOCTYPE svg PUBLIC "-//W3C//DTD SVG 1.1//EN" "http://www.w3.org/Graphics/SVG/1.1/DTD/svg11.dtd">
<svg width="100%" height="100%" viewBox="0 0 1830 584" version="1.1" xmlns="http://www.w3.org/2000/svg" xmlns:xlink="http://www.w3.org/1999/xlink" xml:space="preserve" xmlns:serif="http://www.serif.com/" style="fill-rule:evenodd;clip-rule:evenodd;stroke-linejoin:round;stroke-miterlimit:2;">
    <g transform="matrix(4.16667,0,0,4.16667,0,0)">
        <path d="M153.873,111.457C153.873,121.24 147.374,126.197 138.865,126.197C129.82,126.197 123.589,122.58 123.589,112.194L123.589,89.816L118.631,88.275L119.1,86.131L134.242,86.131L134.778,88.275L129.753,89.816L129.753,111.255C129.753,118.894 132.969,122.445 139.401,122.445C145.633,122.445 149.92,118.894 149.92,110.787L149.92,89.816L144.896,88.275L145.432,86.131L158.362,86.131L158.898,88.275L153.873,89.816L153.873,111.457Z" style="fill:white;fill-rule:nonzero;"/>
        <path d="M188.377,123.584L187.506,125.527L174.643,125.527L174.643,123.652L177.791,122.512L177.791,105.962C177.791,101.675 175.111,100.804 172.833,100.804C170.153,100.804 167.54,102.144 165.999,103.484L165.999,122.311L170.689,123.584L169.818,125.527L156.954,125.527L156.954,123.652L160.104,122.58L160.104,103.082L156.887,99.465L156.887,98.727L164.927,95.644L165.932,95.644L165.73,101.339L165.999,101.339C168.68,96.918 172.766,95.644 175.781,95.644C179.667,95.644 183.688,97.99 183.688,104.824L183.688,122.311L188.377,123.584Z" style="fill:white;fill-rule:nonzero;"/>
        <path d="M195.143,82.714C197.488,82.714 199.297,84.523 199.297,86.868C199.297,89.213 197.488,91.021 195.143,91.021C192.798,91.021 190.988,89.213 190.988,86.868C190.988,84.523 192.798,82.714 195.143,82.714ZM202.848,123.584L201.977,125.527L189.113,125.527L189.113,123.652L192.262,122.58L192.262,103.082L189.046,99.465L189.046,98.727L197.086,95.644L198.158,95.644L198.158,122.311L202.848,123.584Z" style="fill:white;fill-rule:nonzero;"/>
        <path d="M223.148,99.732L218.727,98.258L219.128,96.315L229.982,96.315L230.385,98.258L227.303,99.531L217.118,125.527L213.768,125.527L203.115,99.866L200.233,98.057L200.703,96.315L213.031,96.315L213.5,98.325L209.212,99.397L213.902,111.189C215.51,115.208 216.314,119.296 216.314,119.296L216.582,119.296C216.582,119.296 217.453,115.277 219.061,111.123L223.148,99.732Z" style="fill:white;fill-rule:nonzero;"/>
        <path d="M234.203,106.767L246.464,106.767C246.531,106.298 246.531,105.427 246.531,104.958C246.531,100.737 244.855,98.526 241.371,98.526C238.156,98.526 235.141,101.072 234.203,106.767ZM243.047,121.842C246.33,121.842 248.675,120.971 251.355,119.095L252.227,120.636C249.814,124.322 246.396,126.197 241.238,126.197C234.068,126.197 228.373,121.24 228.373,111.189C228.373,101.207 234.672,95.644 242.176,95.644C248.206,95.644 252.561,99.397 252.561,106.164C252.561,107.236 252.494,108.375 252.227,109.648L234.002,109.648C234.002,117.353 237.418,121.842 243.047,121.842Z" style="fill:white;fill-rule:nonzero;"/>
        <path d="M268.707,123.517L267.836,125.527L253.632,125.527L253.632,123.652L256.781,122.58L256.781,103.082L253.564,99.465L253.564,98.727L261.605,95.644L262.609,95.644L262.409,102.546L262.677,102.546C264.352,98.795 267.367,95.578 271.186,95.578C274.336,95.578 276.145,97.32 276.145,99.934C276.145,102.613 274.336,104.02 272.258,104.02C269.846,104.02 268.439,102.278 268.439,99.934C266.161,100.804 264.352,102.814 262.677,105.292L262.677,122.311L268.707,123.517Z" style="fill:white;fill-rule:nonzero;"/>
        <path d="M277.886,116.08C280.699,122.111 283.313,123.652 286.932,123.652C289.945,123.652 291.956,122.58 291.956,119.43C291.956,116.884 290.482,115.477 287.132,114.337L283.313,112.998C279.293,111.591 276.68,109.112 276.68,104.154C276.68,98.393 280.834,95.644 286.462,95.644C287.802,95.644 290.482,96.114 291.822,96.852L295.038,95.713L295.574,104.289L294.167,104.757C291.286,99.799 288.941,98.393 286.061,98.393C283.246,98.393 281.504,100 281.504,102.412C281.504,104.824 282.71,106.365 285.992,107.503L289.813,108.777C294.234,110.318 296.98,112.664 296.98,117.755C296.98,123.718 292.492,126.197 286.529,126.197C283.781,126.197 281.504,125.394 279.896,124.656L276.881,126.197L276.277,116.549L277.886,116.08Z" style="fill:white;fill-rule:nonzero;"/>
        <path d="M304.818,82.714C307.164,82.714 308.973,84.523 308.973,86.868C308.973,89.213 307.164,91.021 304.818,91.021C302.474,91.021 300.664,89.213 300.664,86.868C300.664,84.523 302.474,82.714 304.818,82.714ZM312.523,123.584L311.652,125.527L298.789,125.527L298.789,123.652L301.938,122.58L301.938,103.082L298.722,99.465L298.722,98.727L306.762,95.644L307.834,95.644L307.834,122.311L312.523,123.584Z" style="fill:white;fill-rule:nonzero;"/>
        <path d="M311.049,97.588L319.424,88.342L320.764,88.342L320.764,96.315L330.546,96.315L330.076,99.465L320.764,99.465L320.764,116.884C320.764,120.636 322.371,122.177 325.186,122.177C327.063,122.177 328.604,121.775 330.613,120.77L331.283,122.445C329.072,124.857 326.525,126.197 322.171,126.197C317.682,126.197 314.867,123.853 314.867,117.889L314.867,99.465L311.049,99.465L311.049,97.588Z" style="fill:white;fill-rule:nonzero;"/>
        <path d="M330.611,99.866L327.73,98.057L328.199,96.315L340.595,96.315L341.063,98.325L336.775,99.397L341.533,111.994C343.408,117.018 343.744,120.502 343.744,120.502L344.012,120.502C344.012,120.502 345.15,116.214 346.558,111.926L350.511,99.732L346.088,98.258L346.49,96.315L357.211,96.315L357.613,98.258L354.531,99.531L345.218,124.924C340.996,136.381 337.445,140 331.951,140C328.467,140 326.592,137.99 326.592,135.443C326.592,133.032 328.065,131.558 330.41,131.558C332.487,131.558 333.827,133.032 333.827,134.974C333.827,135.98 333.492,136.784 333.157,137.252C335.838,137.252 339.321,132.361 341.197,126.533L330.611,99.866Z" style="fill:white;fill-rule:nonzero;"/>
        <path d="M55.571,100.217L54.275,99.575L53.019,100.197L52.929,102.804L52.373,118.825L56.179,118.825L55.656,102.816L55.571,100.217Z" style="fill:white;fill-rule:nonzero;"/>
        <path d="M56.728,68.043L58.678,68.44L54.486,46.019L54.065,46.019L49.873,68.44L51.823,68.043L48.451,84.158L51.03,83.633L47.484,100.577L47.483,100.582L54.275,97.843L61.068,100.582L61.066,100.572L57.521,83.634L60.101,84.159L56.728,68.043Z" style="fill:white;fill-rule:nonzero;"/>
        <path d="M63.311,87.508C64.527,88.085 65.767,88.596 68.119,88.596C70.277,88.596 71.499,88.166 72.625,87.649C72.826,87.558 73.024,87.463 73.224,87.366C73.263,87.348 73.304,87.328 73.344,87.31L73.344,89.079C73.113,89.187 72.874,89.292 72.625,89.393C71.514,89.842 70.178,90.195 68.119,90.195C65.87,90.195 64.482,89.773 63.311,89.267L63.311,87.508ZM73.344,95.578C73.113,95.686 72.874,95.791 72.625,95.893C71.514,96.341 70.178,96.694 68.119,96.694C66.54,96.694 65.386,96.485 64.433,96.186L64.433,94.492C65.365,94.843 66.467,95.095 68.119,95.095C70.277,95.095 71.499,94.665 72.625,94.148C72.826,94.057 73.024,93.962 73.224,93.865C73.263,93.847 73.304,93.827 73.344,93.809L73.344,95.578ZM73.344,102.065C73.113,102.172 72.874,102.278 72.625,102.378C71.514,102.827 70.178,103.181 68.119,103.181C67.298,103.181 66.594,103.124 65.971,103.027L65.971,101.404C66.579,101.515 67.277,101.582 68.119,101.582C70.277,101.582 71.499,101.152 72.625,100.635C72.826,100.542 73.024,100.448 73.224,100.352C73.263,100.333 73.304,100.314 73.344,100.294L73.344,102.065ZM64.248,104.516L57.048,100.949L57.234,103.369L57.395,105.473C60.183,105.501 61.625,106.189 63.015,106.857C64.332,107.489 65.576,108.086 68.119,108.086C70.45,108.086 71.689,107.584 72.894,107.015C73.003,106.962 73.114,106.91 73.224,106.857C73.733,106.613 74.253,106.367 74.841,106.15L74.841,83.915L76.441,85.118L76.441,106.524L77.869,107.718C77.871,107.716 77.874,107.713 77.877,107.71L77.877,84.311L75.041,82.177C74.996,82.195 74.953,82.215 74.91,82.234C74.654,82.347 74.403,82.465 74.147,82.588C74.12,82.601 74.093,82.614 74.066,82.627C73.63,82.836 73.177,83.053 72.669,83.253C72.654,83.259 72.639,83.265 72.625,83.269C71.517,83.701 70.144,84.048 68.121,84.048C65.134,84.048 63.562,83.293 62.175,82.627C62.15,82.615 62.125,82.602 62.099,82.591L63.075,87.096L60.4,86.552L63.752,102.203L64.248,104.516Z" style="fill:white;fill-rule:nonzero;"/>
        <path d="M40.431,109.686C37.924,109.686 36.487,109.162 35.228,108.58C35.027,108.487 34.83,108.393 34.634,108.299C34.174,108.079 33.721,107.864 33.224,107.676L32.96,107.898L32.921,107.93L32.905,107.944L31.951,108.742C32.268,108.835 32.562,108.949 32.859,109.079C32.892,109.093 32.925,109.108 32.96,109.123C33.18,109.222 33.405,109.329 33.646,109.445C33.733,109.487 33.822,109.529 33.911,109.571C35.423,110.292 37.194,111.056 40.431,111.056C43.859,111.056 45.643,110.2 47.218,109.444C48.343,108.904 49.181,108.503 50.909,108.448L50.986,107.417L51.011,107.075C48.684,107.124 47.488,107.695 46.228,108.299C44.808,108.981 43.339,109.686 40.431,109.686Z" style="fill:white;fill-rule:nonzero;"/>
        <path d="M73.917,108.299C73.72,108.393 73.524,108.487 73.323,108.58C72.064,109.162 70.627,109.686 68.119,109.686C65.212,109.686 63.743,108.981 62.323,108.299C61.059,107.693 59.859,107.12 57.517,107.075L57.544,107.417L57.623,108.447C59.364,108.5 60.203,108.902 61.333,109.444C62.908,110.2 64.693,111.056 68.119,111.056C71.356,111.056 73.127,110.292 74.64,109.571C74.729,109.529 74.817,109.487 74.904,109.445C75.111,109.346 75.303,109.254 75.494,109.167C75.526,109.153 75.558,109.137 75.591,109.123C75.922,108.974 76.247,108.846 76.599,108.742L75.327,107.676C74.83,107.864 74.377,108.079 73.917,108.299Z" style="fill:white;fill-rule:nonzero;"/>
        <path d="M44.118,96.186C43.165,96.485 42.011,96.694 40.431,96.694C38.373,96.694 37.037,96.341 35.926,95.893C35.677,95.791 35.438,95.686 35.207,95.578L35.207,93.809C35.246,93.827 35.287,93.847 35.327,93.865C35.527,93.962 35.725,94.057 35.926,94.148C37.052,94.665 38.274,95.095 40.431,95.095C42.084,95.095 43.186,94.843 44.118,94.492L44.118,96.186ZM42.58,103.027C41.957,103.124 41.252,103.181 40.431,103.181C38.373,103.181 37.037,102.827 35.926,102.378C35.677,102.278 35.438,102.172 35.207,102.065L35.207,100.294C35.246,100.314 35.287,100.333 35.327,100.352C35.527,100.448 35.725,100.542 35.926,100.635C37.052,101.152 38.274,101.582 40.431,101.582C41.274,101.582 41.972,101.515 42.58,101.404L42.58,103.027ZM35.207,87.31C35.246,87.328 35.287,87.348 35.327,87.366C35.527,87.463 35.725,87.558 35.926,87.649C37.052,88.166 38.274,88.596 40.431,88.596C42.783,88.596 44.024,88.085 45.24,87.508L45.24,89.267C44.068,89.773 42.681,90.195 40.431,90.195C38.373,90.195 37.037,89.842 35.926,89.393C35.677,89.292 35.438,89.187 35.207,89.079L35.207,87.31ZM48.151,86.552L45.476,87.096L45.479,87.087L45.478,87.087L46.451,82.591C46.426,82.603 46.402,82.615 46.377,82.627C44.989,83.293 43.418,84.048 40.431,84.048C38.408,84.048 37.035,83.7 35.926,83.269C35.912,83.264 35.896,83.259 35.881,83.253C35.374,83.053 34.92,82.836 34.486,82.627C34.394,82.583 34.302,82.539 34.212,82.496C34.022,82.405 33.833,82.318 33.641,82.234C33.597,82.215 33.554,82.195 33.511,82.177L30.674,84.311L30.674,107.711C30.677,107.714 30.679,107.716 30.681,107.719L32.109,106.524L32.109,85.118L33.641,83.966L33.709,83.915L33.709,106.15C34.297,106.367 34.818,106.613 35.327,106.857C35.437,106.91 35.546,106.962 35.658,107.015C36.861,107.584 38.101,108.086 40.431,108.086C42.974,108.086 44.219,107.489 45.537,106.857C46.922,106.191 48.359,105.505 51.131,105.473L51.289,103.378L51.47,100.965L44.305,104.515L48.151,86.552Z" style="fill:white;fill-rule:nonzero;"/>
        <path d="M104.918,77.317C102.393,86.795 97.772,95.898 91.185,104.375C83.095,114.784 72.008,124.252 58.234,132.518L54.275,134.895L50.316,132.518C36.541,124.252 25.455,114.783 17.365,104.375C10.778,95.898 6.158,86.795 3.632,77.317C1.299,68.562 0.966,58.723 2.669,48.863C3.474,44.203 4.618,40.435 6.166,37.343C7.197,35.286 8.419,33.541 9.806,32.129C9.834,32.099 19.204,22.953 19.204,22.953L19.205,22.953L35.876,6.696C39.577,3.294 44.283,1.651 50.289,1.651C57.39,1.651 61.48,4.481 64.766,6.754C66.854,8.199 68.503,9.341 70.339,9.341L77.689,9.341L87.092,16.019L81.882,27.172L79.36,27.172L80.144,25.493L73.57,25.493L72.788,27.169L77.615,32.384C80.461,29.437 84.394,27.821 88.752,27.821C92.002,27.821 95.067,28.947 97.615,31.077C99.477,32.635 101.082,34.743 102.385,37.343C103.933,40.435 105.076,44.203 105.881,48.863C107.584,58.723 107.251,68.562 104.918,77.317ZM107.457,48.591C106.625,43.774 105.434,39.861 103.814,36.627C102.412,33.83 100.672,31.55 98.64,29.851C95.8,27.477 92.381,26.222 88.752,26.222C87.025,26.222 85.351,26.457 83.769,26.91L89.105,15.488L78.199,7.741L70.339,7.741C69.003,7.741 67.535,6.726 65.676,5.439C62.39,3.166 57.89,0.053 50.289,0.053C43.864,0.053 38.795,1.84 34.794,5.519C34.794,5.519 8.808,30.867 8.667,31.009L8.666,31.008C7.156,32.546 5.833,34.436 4.736,36.627C3.117,39.861 1.925,43.774 1.093,48.591C-0.648,58.676 -0.304,68.752 2.087,77.729C4.667,87.415 9.383,96.71 16.103,105.355C24.315,115.921 35.548,125.522 49.493,133.889L54.275,136.76L59.057,133.889C73.002,125.521 84.236,115.921 92.447,105.355C99.167,96.71 103.883,87.414 106.463,77.729C108.854,68.752 109.198,58.677 107.457,48.591Z" style="fill:white;fill-rule:nonzero;"/>
        <path d="M48.25,6.412C48.325,6.406 48.401,6.396 48.477,6.39C49.785,6.285 51.124,6.295 52.453,6.472C53.781,6.648 55.105,6.985 56.358,7.493C57.615,7.995 58.798,8.646 59.915,9.336C61.193,10.128 62.415,10.942 63.642,11.617L63.642,14.32C61.853,13.323 60.331,12.061 58.824,10.973C57.806,10.231 56.777,9.56 55.681,9.02C54.588,8.477 53.427,8.083 52.224,7.827C51.019,7.571 49.776,7.462 48.516,7.467C48.427,7.467 48.337,7.471 48.25,7.472L48.25,6.412ZM69.297,13.813L72.371,13.813L72.371,14.982C70.896,15.229 70.505,16.677 70.46,16.868C70.457,16.882 70.456,16.89 70.456,16.89L69.297,16.89L69.297,13.813ZM77.509,15.009C78.191,15.009 78.743,15.562 78.743,16.243C78.743,16.925 78.191,17.477 77.509,17.477C76.828,17.477 76.275,16.925 76.275,16.243C76.275,15.562 76.828,15.009 77.509,15.009ZM30.674,32.398L56.355,32.398L53.647,29.689L47.409,29.689L48.761,27.887C49.81,26.489 50.476,24.794 50.639,23.027C50.662,22.806 50.672,22.584 50.682,22.362L50.666,21.695L50.66,21.36L50.618,21.029L50.535,20.365C50.351,19.493 50.104,18.625 49.701,17.818C49.294,17.02 48.818,16.239 48.2,15.574L47.978,15.315L47.732,15.08C47.566,14.925 47.408,14.76 47.236,14.612C46.877,14.334 46.533,14.031 46.137,13.801C44.613,12.784 42.783,12.262 40.933,12.184L40.933,11.078C41.389,11.073 41.847,11.097 42.304,11.143C43.898,11.304 45.473,11.775 46.867,12.604C47.33,12.847 47.741,13.168 48.168,13.468C48.374,13.628 48.565,13.807 48.764,13.976L49.06,14.233L49.332,14.517C50.082,15.251 50.684,16.124 51.206,17.038C51.724,17.959 52.074,18.965 52.339,19.993L52.48,20.776L52.548,21.169L52.579,21.566L52.636,22.363C52.638,22.628 52.639,22.895 52.626,23.162C52.565,24.616 52.213,26.062 51.617,27.404L54.593,27.404L59.587,32.398L68.232,32.398L63.929,27.382L65.29,27.382L71.136,32.398L74.513,32.398L70.067,27.595L71.683,24.136C71.385,23.906 71.105,23.655 70.857,23.377C70.29,22.745 69.867,21.999 69.612,21.215C69.359,20.44 69.271,19.633 69.31,18.852L70.457,18.852C70.557,20.168 71.136,21.38 72.066,22.162C72.806,22.801 73.741,23.143 74.689,23.208L81.212,23.208L84.214,16.779L76.96,11.626L70.339,11.626C67.791,11.626 65.787,10.239 63.466,8.634C60.284,6.432 56.677,3.937 50.289,3.937C42.254,3.937 38.636,7.263 37.447,8.355L22.478,22.953L30.674,22.953L30.674,32.398Z" style="fill:white;fill-rule:nonzero;"/>
        <path d="M66.181,69.755L66.181,68.419L68.495,68.419L68.495,73.921L66.946,73.921L66.946,69.755L66.181,69.755ZM73.13,69.81C73.13,68.708 74.115,68.207 75.031,68.207C75.946,68.207 76.931,68.708 76.931,69.81C76.931,70.335 76.646,70.803 76.206,71.025C76.809,71.288 77.152,71.794 77.152,72.438C77.152,73.54 76.058,74.134 75.031,74.134C74.003,74.134 72.91,73.54 72.91,72.438C72.91,71.794 73.252,71.288 73.855,71.025C73.416,70.803 73.13,70.335 73.13,69.81ZM83.915,70.077C85.08,70.077 85.709,71.086 85.709,72.035C85.709,73.477 84.477,74.134 83.334,74.134C82.716,74.134 82.142,73.959 81.76,73.656C81.299,73.272 81.014,72.686 81.014,72.126C81.014,71.274 81.49,70.474 81.888,69.953L83.06,68.419L84.844,68.419L83.388,70.153C83.562,70.101 83.731,70.077 83.915,70.077ZM89.509,69.81C89.509,68.708 90.494,68.207 91.41,68.207C92.325,68.207 93.31,68.708 93.31,69.81C93.31,70.335 93.025,70.803 92.585,71.025C93.188,71.288 93.53,71.794 93.53,72.438C93.53,73.54 92.437,74.134 91.41,74.134C90.381,74.134 89.289,73.54 89.289,72.438C89.289,71.794 89.63,71.288 90.234,71.025C89.794,70.803 89.509,70.335 89.509,69.81ZM101.252,66.359C101.239,66.509 101.222,66.657 101.208,66.806C101.199,66.907 101.193,67.01 101.184,67.111L101.179,67.11C101.107,67.84 101.026,68.566 100.929,69.286L98.875,67.204L90.707,58.922L86.158,62.265L79.021,55.057L71.885,62.265L67.329,58.916L60.416,65.772L61.691,71.386L61.691,71.387L59.582,70.957L61.504,79.842C62.123,80.068 62.656,80.323 63.164,80.567C64.501,81.209 65.655,81.763 68.121,81.763C70.585,81.763 71.74,81.209 73.076,80.567C74.464,79.901 76.036,79.146 79.021,79.146C82.006,79.146 83.579,79.901 84.966,80.567C86.302,81.209 87.457,81.763 89.921,81.763C92.386,81.763 93.541,81.209 94.877,80.567C95.21,80.407 95.558,80.244 95.926,80.087C95.927,80.085 95.927,80.084 95.927,80.083C95.953,80.072 95.981,80.062 96.007,80.052C96.049,80.033 96.088,80.015 96.132,79.997L96.134,80.001C96.825,79.72 97.613,79.465 98.605,79.31C98.363,80.05 98.101,80.786 97.83,81.52L97.837,81.523C96.439,85.317 94.66,89.05 92.519,92.687C91.7,94.078 90.824,95.454 89.9,96.815C89.864,96.869 89.827,96.924 89.791,96.977C89.355,97.615 88.909,98.25 88.45,98.882C88.393,98.96 88.335,99.038 88.278,99.116C87.824,99.736 87.361,100.354 86.884,100.968C86.875,100.982 86.864,100.996 86.853,101.009C79.182,110.88 68.603,119.9 55.412,127.816L54.275,128.498L53.138,127.816C39.947,119.9 29.368,110.88 21.696,101.009C21.38,100.602 21.07,100.194 20.763,99.784C20.656,99.64 20.55,99.494 20.443,99.349C20.249,99.085 20.054,98.821 19.864,98.557C19.734,98.376 19.607,98.195 19.48,98.015C19.318,97.785 19.156,97.556 18.998,97.325C18.858,97.124 18.721,96.922 18.585,96.721C18.443,96.512 18.304,96.304 18.166,96.095C18.021,95.877 17.878,95.659 17.736,95.441C17.611,95.248 17.488,95.054 17.365,94.86C17.218,94.63 17.072,94.399 16.928,94.169C16.817,93.989 16.708,93.809 16.597,93.628C16.449,93.384 16.3,93.14 16.155,92.894C16.062,92.738 15.972,92.581 15.88,92.425C13.865,88.969 12.173,85.43 10.828,81.834L10.834,81.832C10.52,80.994 10.221,80.154 9.945,79.31C10.937,79.465 11.726,79.72 12.418,80.001L12.419,79.997C12.467,80.017 12.509,80.037 12.556,80.057C12.578,80.065 12.601,80.074 12.623,80.083C12.623,80.084 12.623,80.085 12.624,80.086C12.992,80.244 13.341,80.407 13.674,80.567C15.011,81.209 16.166,81.763 18.629,81.763C21.095,81.763 22.25,81.209 23.585,80.567C24.972,79.901 26.544,79.146 29.53,79.146C32.515,79.146 34.087,79.901 35.475,80.567C36.812,81.209 37.966,81.763 40.431,81.763C42.896,81.763 44.051,81.209 45.387,80.567C45.895,80.323 46.429,80.068 47.046,79.842L48.085,75.043C47.398,75.262 46.82,75.539 46.228,75.823C44.808,76.505 43.339,77.209 40.431,77.209C37.524,77.209 36.055,76.505 34.634,75.823C33.317,75.19 32.074,74.593 29.53,74.593C26.987,74.593 25.743,75.19 24.426,75.823C23.005,76.504 21.537,77.209 18.629,77.209C15.722,77.209 14.254,76.505 12.834,75.823C12.261,75.548 11.704,75.283 11.054,75.069C10.903,75.019 10.746,74.973 10.584,74.929C10.568,74.925 10.554,74.921 10.54,74.917C10.388,74.877 10.231,74.842 10.068,74.808C10.001,74.794 9.927,74.782 9.857,74.769C9.757,74.751 9.655,74.733 9.549,74.718C9.259,74.675 8.952,74.641 8.616,74.62C8.487,74.084 8.367,73.545 8.253,73.002C8.763,73.018 9.222,73.058 9.646,73.115L9.647,73.113C9.72,73.123 9.788,73.137 9.859,73.148C9.971,73.165 10.084,73.182 10.19,73.202C10.287,73.219 10.378,73.239 10.471,73.259C10.532,73.271 10.596,73.283 10.656,73.296L10.656,73.299C11.826,73.569 12.69,73.979 13.527,74.38C14.843,75.013 16.087,75.61 18.629,75.61C21.173,75.61 22.418,75.013 23.734,74.38C25.154,73.699 26.623,72.994 29.53,72.994C32.437,72.994 33.906,73.699 35.327,74.38C36.644,75.013 37.888,75.61 40.431,75.61C42.974,75.61 44.219,75.013 45.537,74.38C46.392,73.969 47.269,73.551 48.466,73.282L48.969,70.957L46.859,71.387L47.36,69.183C47.029,69.324 46.709,69.478 46.377,69.637C44.99,70.303 43.418,71.058 40.431,71.058C37.447,71.058 35.874,70.303 34.486,69.637C34.021,69.414 33.578,69.202 33.093,69.019C32.318,68.727 31.435,68.513 30.191,68.457C30.051,68.451 29.907,68.447 29.757,68.445C29.681,68.443 29.608,68.441 29.53,68.441C29.45,68.441 29.375,68.443 29.296,68.445C29.157,68.447 29.02,68.451 28.888,68.457C27.571,68.514 26.658,68.747 25.849,69.064C25.411,69.236 25.002,69.432 24.575,69.637C23.187,70.303 21.615,71.058 18.629,71.058C15.644,71.058 14.073,70.303 12.685,69.637C11.801,69.212 10.995,68.828 9.838,68.615C9.547,68.561 9.234,68.519 8.892,68.489C8.875,68.488 8.855,68.486 8.836,68.485C8.695,68.474 8.547,68.464 8.396,68.457C8.357,68.456 8.318,68.454 8.278,68.452C8.102,68.446 7.92,68.441 7.728,68.441C7.654,68.441 7.584,68.443 7.513,68.444C7.482,68.191 7.463,67.934 7.436,67.679L7.423,67.681C7.387,67.341 7.364,66.998 7.333,66.657C7.319,66.492 7.297,66.329 7.285,66.163L7.291,66.163C7.158,64.53 7.085,62.882 7.084,61.22L21.284,65.933C21.046,66.78 20.927,67.666 20.941,68.561C21.334,68.478 21.685,68.376 22.015,68.259C22.379,68.131 22.717,67.985 23.054,67.829C23.23,67.747 23.406,67.663 23.585,67.577C23.938,67.408 24.302,67.233 24.699,67.066C25.435,66.756 26.285,66.476 27.373,66.31C27.544,66.284 27.72,66.261 27.905,66.241C28.144,66.215 28.395,66.195 28.657,66.181C28.9,66.168 29.152,66.16 29.417,66.158C29.455,66.158 29.491,66.156 29.53,66.156C29.57,66.156 29.607,66.158 29.646,66.158C29.911,66.16 30.164,66.168 30.407,66.181C30.687,66.196 30.955,66.218 31.209,66.247C31.375,66.266 31.535,66.287 31.691,66.311C32.821,66.483 33.694,66.78 34.451,67.104C34.813,67.26 35.15,67.42 35.475,67.577C35.646,67.659 35.815,67.74 35.984,67.818C36.329,67.978 36.675,68.129 37.049,68.261C37.38,68.377 37.733,68.48 38.127,68.562C38.138,67.703 38.032,66.853 37.814,66.037L48.873,62.525L49.953,57.77L36.825,63.707C36.54,63.241 36.216,62.799 35.845,62.4C35.638,62.172 35.418,61.956 35.186,61.752L53.49,37.882L80.285,37.882C81.127,36.43 83.544,33.306 88.752,33.306C96.089,33.306 99.177,42.273 100.477,49.796C101.443,55.399 101.696,60.963 101.244,66.352L101.252,66.359ZM32.098,37.882L46.593,37.882L33.101,60.394C32.369,60.053 31.59,59.819 30.794,59.699L32.098,37.882ZM100.341,38.367C99.179,36.048 97.769,34.186 96.148,32.83C94.017,31.048 91.46,30.106 88.752,30.106C83.766,30.106 80.669,32.389 78.949,34.304L78.609,34.683L30.378,34.683L30.298,34.947L28.101,42.196C27.918,42.909 27.658,43.586 27.344,44.228L28.269,59.701C27.472,59.821 26.694,60.051 25.961,60.392L19.771,50.064C19.086,50.201 18.382,50.28 17.664,50.28C16.664,50.28 15.696,50.14 14.777,49.884L23.879,61.755C23.623,61.982 23.376,62.219 23.148,62.476C22.83,62.83 22.554,63.218 22.301,63.622L7.246,56.587C7.405,54.337 7.681,52.07 8.074,49.796C8.325,48.343 8.603,47.032 8.92,45.793C7.948,44.446 7.277,42.867 7.011,41.155C6.15,43.474 5.458,46.144 4.921,49.251C3.274,58.789 3.592,68.29 5.84,76.729C7.699,83.702 10.736,90.473 14.891,96.934C14.908,96.96 14.926,96.986 14.943,97.013C15.253,97.494 15.568,97.973 15.89,98.45C15.94,98.523 15.992,98.596 16.041,98.669C16.335,99.102 16.632,99.533 16.937,99.963C17.03,100.094 17.127,100.224 17.221,100.356C17.489,100.729 17.756,101.103 18.032,101.474C18.181,101.675 18.337,101.875 18.49,102.077C18.715,102.375 18.939,102.674 19.169,102.972C27.085,113.157 37.96,122.439 51.491,130.559L54.275,132.229L57.058,130.559C59.25,129.244 61.364,127.895 63.414,126.52C67.695,123.65 71.674,120.656 75.326,117.54C80.275,113.315 84.627,108.872 88.367,104.239C88.708,103.817 89.05,103.396 89.38,102.972C89.384,102.967 89.386,102.963 89.39,102.958C89.746,102.501 90.093,102.042 90.437,101.581C90.552,101.425 90.666,101.27 90.779,101.115C91.011,100.799 91.24,100.484 91.466,100.167C91.594,99.987 91.722,99.807 91.849,99.627C92.07,99.311 92.286,98.996 92.502,98.68C92.614,98.515 92.728,98.35 92.839,98.184C93.127,97.754 93.41,97.322 93.687,96.89C93.841,96.649 93.992,96.408 94.143,96.167C94.285,95.942 94.424,95.718 94.562,95.492C94.723,95.23 94.882,94.968 95.039,94.704C95.162,94.5 95.281,94.295 95.4,94.091C95.56,93.817 95.72,93.545 95.877,93.27L95.877,93.269C98.911,87.928 101.2,82.395 102.71,76.729C104.958,68.29 105.276,58.789 103.629,49.251C102.863,44.815 101.788,41.255 100.341,38.367Z" style="fill:white;fill-rule:nonzero;"/>
        <path d="M24.173,27.813L25.718,27.813L25.718,29.445L16.357,42.23L15.456,41.617L24.173,27.813ZM17.664,47.994C17.947,47.994 18.226,47.977 18.503,47.949C22.03,47.601 25.005,45.093 25.893,41.606L28.388,33.371L28.388,25.238L20.134,25.238C20.134,25.238 12.031,33.151 11.85,33.32C10.138,34.946 9.17,37.175 9.17,39.502C9.17,39.695 9.186,39.885 9.199,40.076C9.497,44.491 13.173,47.994 17.664,47.994Z" style="fill:white;fill-rule:nonzero;"/>
        <path d="M91.41,72.833C91.716,72.833 91.967,72.577 91.967,72.261C91.967,71.938 91.716,71.675 91.41,71.675C91.102,71.675 90.851,71.938 90.851,72.261C90.851,72.577 91.102,72.833 91.41,72.833Z" style="fill:white;fill-rule:nonzero;"/>
        <path d="M94.459,50.436L91.849,50.436L91.043,47.955L90.609,47.955L89.802,50.436L87.193,50.436L87.058,50.85L89.169,52.384L88.363,54.865L88.714,55.121L90.826,53.587L92.937,55.121L93.289,54.865L92.482,52.384L94.593,50.85L94.459,50.436Z" style="fill:white;fill-rule:nonzero;"/>
        <path d="M91.41,70.374C91.689,70.374 91.918,70.141 91.918,69.852C91.918,69.564 91.689,69.33 91.41,69.33C91.129,69.33 90.902,69.564 90.902,69.852C90.902,70.141 91.129,70.374 91.41,70.374Z" style="fill:white;fill-rule:nonzero;"/>
        <path d="M82.527,72.077C82.527,72.521 82.886,72.883 83.327,72.883C83.762,72.883 84.104,72.529 84.104,72.077C84.104,71.633 83.762,71.286 83.327,71.286C82.886,71.286 82.527,71.641 82.527,72.077Z" style="fill:white;fill-rule:nonzero;"/>
        <path d="M75.031,72.833C75.338,72.833 75.588,72.577 75.588,72.261C75.588,71.938 75.338,71.675 75.031,71.675C74.723,71.675 74.472,71.938 74.472,72.261C74.472,72.577 74.723,72.833 75.031,72.833Z" style="fill:white;fill-rule:nonzero;"/>
        <path d="M75.031,70.374C75.31,70.374 75.539,70.141 75.539,69.852C75.539,69.564 75.31,69.33 75.031,69.33C74.752,69.33 74.523,69.564 74.523,69.852C74.523,70.141 74.752,70.374 75.031,70.374Z" style="fill:white;fill-rule:nonzero;"/>
        <path d="M70.851,50.436L68.242,50.436L67.435,47.955L67,47.955L66.194,50.436L63.585,50.436L63.45,50.85L65.561,52.384L64.754,54.865L65.107,55.121L67.217,53.587L69.329,55.121L69.68,54.865L68.874,52.384L70.985,50.85L70.851,50.436Z" style="fill:white;fill-rule:nonzero;"/>
        <path d="M82.655,46.124L80.045,46.124L79.239,43.643L78.804,43.643L77.998,46.124L75.388,46.124L75.254,46.538L77.365,48.072L76.559,50.553L76.911,50.809L79.021,49.275L81.132,50.809L81.484,50.553L80.678,48.072L82.789,46.538L82.655,46.124Z" style="fill:white;fill-rule:nonzero;"/>
        <path d="M147.441,52.103C147.441,39.707 144.694,34.951 138.664,34.951C132.567,34.951 129.82,39.707 129.82,52.103C129.82,64.431 132.567,69.255 138.664,69.255C144.694,69.255 147.441,64.431 147.441,52.103ZM119.769,52.103C119.769,39.507 126.603,31.734 138.664,31.734C150.657,31.734 157.492,39.507 157.492,52.103C157.492,64.699 150.657,72.471 138.664,72.471C126.603,72.471 119.769,64.699 119.769,52.103Z" style="fill:rgb(241,93,34);fill-rule:nonzero;"/>
        <path d="M176.385,69.724L175.514,71.801L159.166,71.801L159.166,69.925L161.912,68.719L161.912,50.428L159.099,46.006L159.099,45.269L169.216,41.918L170.623,41.918L170.422,48.753L170.689,48.753C172.029,45.336 174.643,41.918 179.064,41.918C182.616,41.918 184.76,43.996 184.76,47.279C184.76,50.294 182.683,52.17 180.137,52.17C177.256,52.17 175.514,50.227 175.514,47.48C173.839,48.217 172.23,49.758 170.689,51.768L170.689,68.451L176.385,69.724Z" style="fill:rgb(241,93,34);fill-rule:nonzero;"/>
        <path d="M192.799,53.443L202.246,53.443C202.381,52.907 202.447,52.036 202.447,50.964C202.447,47.815 201.576,45.001 198.428,45.001C195.479,45.001 193.335,47.748 192.799,53.443ZM201.174,66.843C204.189,66.843 205.932,66.106 208.41,64.23L209.684,65.704C207.539,70.528 203.452,72.471 197.758,72.471C190.119,72.471 184.089,67.58 184.089,57.597C184.089,47.48 190.924,41.918 199.03,41.918C205.597,41.918 210.152,45.738 210.152,52.773C210.152,53.845 210.086,55.319 209.817,56.592L192.665,56.592C192.799,62.689 195.479,66.843 201.174,66.843Z" style="fill:rgb(241,93,34);fill-rule:nonzero;"/>
        <path d="M225.092,44.934C221.676,44.934 221.072,47.547 221.072,51.902C221.072,56.19 221.676,58.803 225.092,58.803C228.576,58.803 229.18,56.19 229.18,51.902C229.18,47.547 228.576,44.934 225.092,44.934ZM218.191,78.501C218.191,82.052 220.805,83.727 225.428,83.727C230.721,83.727 234.74,82.253 234.74,78.032C234.74,75.486 233.4,73.945 229.447,73.945L221.006,73.945C219.264,74.883 218.191,76.357 218.191,78.501ZM231.592,65.972C237.957,65.972 241.976,69.054 241.976,75.486C241.976,83.661 233.869,86.676 225.025,86.676C216.851,86.676 210.82,84.799 210.82,79.641C210.82,75.821 213.836,74.079 218.393,73.409L218.393,73.208C214.573,72.739 212.43,70.528 212.43,67.044C212.43,63.56 215.042,61.483 218.726,60.746C214.908,59.406 212.496,56.726 212.496,52.371C212.496,46.475 216.918,41.918 225.36,41.918C228.844,41.918 232.932,42.589 236.08,44.13C235.812,43.727 235.679,43.192 235.679,42.521C235.679,40.377 237.287,39.038 239.363,39.038C241.508,39.038 243.049,40.512 243.049,42.856C243.049,45.403 241.373,46.81 238.961,46.81C237.22,46.81 235.611,46.14 233.668,45.403L233.668,46.073C236.014,47.144 237.621,49.423 237.621,52.438C237.621,58.87 231.189,61.751 225.293,61.751C223.819,61.751 222.478,61.617 221.206,61.282C219.799,61.751 218.726,62.488 218.726,63.962C218.726,65.302 219.531,65.972 221.139,65.972L231.592,65.972Z" style="fill:rgb(241,93,34);fill-rule:nonzero;"/>
        <path d="M255.443,69.389C259.932,69.389 261.139,64.967 261.139,57.195C261.139,49.423 259.932,45.001 255.443,45.001C250.954,45.001 249.748,49.423 249.748,57.195C249.748,64.967 250.954,69.389 255.443,69.389ZM255.443,72.471C246.398,72.471 240.434,67.312 240.434,57.195C240.434,47.078 246.398,41.918 255.443,41.918C264.488,41.918 270.451,47.078 270.451,57.195C270.451,67.312 264.488,72.471 255.443,72.471Z" style="fill:rgb(241,93,34);fill-rule:nonzero;"/>
        <path d="M305.626,69.858L304.755,71.801L290.082,71.801L290.082,69.925L292.828,68.652L292.828,54.046C292.828,49.691 290.551,48.217 288.071,48.217C285.793,48.217 283.984,49.356 282.778,50.495L282.778,68.585L286.731,69.858L285.86,71.801L271.254,71.801L271.254,69.925L274.001,68.719L274.001,50.361L271.187,45.939L271.187,45.202L281.305,41.918L282.711,41.918L282.51,47.748L282.778,47.748C285.19,43.929 288.541,41.918 293.029,41.918C297.92,41.918 301.673,45.336 301.673,52.17L301.673,68.585L305.626,69.858Z" style="fill:rgb(241,93,34);fill-rule:nonzero;"/>
        <path d="M332.625,63.828C332.625,60.21 330.748,58.468 326.326,56.726L321.502,54.716C316.545,52.706 313.663,49.356 313.663,43.192C313.663,35.219 319.828,31.734 326.326,31.734C329.877,31.734 332.759,32.539 334.836,33.208L338.119,31.734L338.722,42.856L336.912,43.259L333.697,39.038C331.686,36.224 329.609,34.749 326.125,34.749C322.977,34.749 320.832,36.76 320.832,39.842C320.832,42.924 322.239,44.733 326.26,46.341L331.285,48.351C337.583,50.83 340.33,54.448 340.33,60.612C340.33,68.652 334.232,72.471 327.063,72.471C322.239,72.471 319.693,71.265 317.817,70.327L314.199,72.471L313.06,59.741L315.137,59.339L318.42,64.096C320.631,67.513 323.11,69.322 326.93,69.322C330.48,69.322 332.625,67.312 332.625,63.828Z" style="fill:rgb(241,93,34);fill-rule:nonzero;"/>
        <path d="M340.863,43.862L351.584,34.683L353.594,34.683L353.594,42.589L362.437,42.589L361.969,46.073L353.661,46.073L353.661,61.885C353.661,65.771 355.135,67.245 357.814,67.245C359.557,67.245 360.896,66.843 362.773,65.838L363.443,67.446C361.366,70.595 358.016,72.471 353.728,72.471C348.502,72.471 344.884,69.858 344.884,63.024L344.884,46.073L340.863,46.073L340.863,43.862Z" style="fill:rgb(241,93,34);fill-rule:nonzero;"/>
        <path d="M378.518,58.736C374.564,58.736 372.286,59.741 372.286,63.292C372.286,65.771 373.76,67.446 376.105,67.446C377.579,67.446 378.785,67.111 379.991,66.039L379.991,58.736L378.518,58.736ZM388.768,65.369C388.768,68.384 389.84,69.054 392.989,68.719L393.19,70.059C391.516,71.667 389.305,72.471 386.155,72.471C383.274,72.471 380.862,71.265 380.326,68.183L380.125,68.116C378.719,71.131 375.637,72.471 372.018,72.471C367.529,72.471 363.844,69.992 363.844,64.431C363.844,58.535 368.534,55.654 375.971,55.654C377.379,55.654 378.92,55.922 379.991,56.19L379.991,53.644C379.991,49.758 377.512,47.815 373.559,47.815C370.745,47.815 368.4,48.351 365.586,49.825L364.781,47.882C367.663,43.996 372.286,41.918 377.78,41.918C383.342,41.918 388.768,44.398 388.768,52.572L388.768,65.369Z" style="fill:rgb(241,93,34);fill-rule:nonzero;"/>
        <path d="M389.973,43.862L400.693,34.683L402.703,34.683L402.703,42.589L411.547,42.589L411.078,46.073L402.769,46.073L402.769,61.885C402.769,65.771 404.244,67.245 406.924,67.245C408.666,67.245 410.006,66.843 411.882,65.838L412.553,67.446C410.475,70.595 407.125,72.471 402.837,72.471C397.611,72.471 393.992,69.858 393.992,63.024L393.992,46.073L389.973,46.073L389.973,43.862Z" style="fill:rgb(241,93,34);fill-rule:nonzero;"/>
        <path d="M420.658,53.443L430.105,53.443C430.239,52.907 430.307,52.036 430.307,50.964C430.307,47.815 429.435,45.001 426.286,45.001C423.338,45.001 421.194,47.748 420.658,53.443ZM429.033,66.843C432.049,66.843 433.791,66.106 436.269,64.23L437.543,65.704C435.398,70.528 431.311,72.471 425.616,72.471C417.978,72.471 411.947,67.58 411.947,57.597C411.947,47.48 418.782,41.918 426.889,41.918C433.455,41.918 438.012,45.738 438.012,52.773C438.012,53.845 437.944,55.319 437.676,56.592L420.523,56.592C420.658,62.689 423.338,66.843 429.033,66.843Z" style="fill:rgb(241,93,34);fill-rule:nonzero;"/>
    </g>
</svg>
